<?xml version="1.0" encoding="UTF-8" standalone="no"?>
<!-- Created with Inkscape (http://www.inkscape.org/) -->

<svg
   width="89.396629mm"
   height="71.825661mm"
   viewBox="0 0 89.396628 71.825661"
   version="1.1"
   id="svg1"
   xml:space="preserve"
   xmlns="http://www.w3.org/2000/svg"
   xmlns:svg="http://www.w3.org/2000/svg"><defs
     id="defs1" /><g
     id="layer-MC0"
     transform="matrix(0.26458333,0,0,0.26458334,-17.950609,-24.510965)"><path
       id="path1"
       d="m 0,0 v 19.669 h -31.287 v 14.494 h 12.078 V 48.196 H -31.287 V 61.079 H 0 v 19.67 H -53.947 V 0 Z M 4.946,-4.946 1.84,-16.104 h -63.954 v 90.641 l 3.106,11.157 H 4.946 V 56.133 L 1.84,44.975 H -14.263 V 29.217 l -3.106,-4.601 H 4.946 Z"
       style="fill:#bf1b2c;fill-opacity:1;fill-rule:nonzero;stroke:none"
       transform="matrix(1.3333333,0,0,-1.3333333,150.66347,206.89867)" /><path
       id="path2"
       d="m 0,0 v 19.669 h -36.895 l -17.167,-26.23 v -20.24 h 34.163 v -16.104 h -34.163 v -18.174 h 42.371 L 0,-47.986 v 35.103 H -31.862 V 0 Z m 4.946,-4.946 -1.15,-2.991 h 1.15 v -41.984 l -3.22,-11.158 -14.379,-16.104 h -49.576 v 28.162 l 3.106,6.116 h -3.106 v 32.957 l 22.658,34.563 H 4.946 Z"
       style="fill:#00a650;fill-opacity:1;fill-rule:nonzero;stroke:none"
       transform="matrix(1.3333333,0,0,-1.3333333,233.63413,125.45987)" /><path
       id="path3"
       d="m 0,0 v 19.669 h -31.287 v 14.494 h 12.078 V 48.196 H -31.287 V 61.079 H 0 v 19.67 H -53.947 V 0 Z M 4.946,-4.946 1.84,-16.104 h -63.954 v 90.641 l 3.106,11.157 H 4.946 V 56.133 L 1.84,44.975 H -14.263 V 29.217 l -3.106,-4.601 H 4.946 Z"
       style="fill:#00a650;fill-opacity:1;fill-rule:nonzero;stroke:none"
       transform="matrix(1.3333333,0,0,-1.3333333,316.2988,206.89867)" /><path
       id="path4"
       d="m 0,0 v 19.669 h -31.287 v 14.494 h 12.078 V 48.196 H -31.287 V 61.079 H 0 v 19.67 H -53.947 V 0 Z M 4.946,-4.946 1.84,-16.104 h -63.954 v 90.641 l 3.106,11.157 H 4.946 V 56.133 L 1.84,44.975 H -14.263 V 29.217 l -3.106,-4.601 H 4.946 Z"
       style="fill:#00a650;fill-opacity:1;fill-rule:nonzero;stroke:none"
       transform="matrix(1.3333333,0,0,-1.3333333,399.11653,206.89867)" /><path
       id="path5"
       d="m 150.82762,234.97025 h -49.19333 l -22.890665,34.97333 v 72.692 h 49.129335 l 22.95466,-22.692 v -18.564 h -30.52 v 17.944 h -11.34933 v -58.128 h 11.34933 v 32.82134 h 30.52 z m 6.59467,87.72667 -4.14,14.87733 -26.84,26.532 H 67.855625 v -89.56667 l 30.211999,-46.164 h 59.354666 z"
       style="fill:#f1511b;fill-opacity:1;fill-rule:nonzero;stroke:none;stroke-width:1.33333" /><path
       id="path6"
       d="m 203.27774,316.40959 h -11.34933 v -55.21333 h 11.34933 z m 30.368,3.53333 v -84.97333 h -49.03466 l -23.04934,22.94534 v 84.71999 h 49.12934 z m 6.59467,2.75334 -4.14,14.87733 -26.84,26.53333 H 150.67374 V 259.50959 l 30.98,-31.13333 h 58.58667 z"
       style="fill:#f1511b;fill-opacity:1;fill-rule:nonzero;stroke:none;stroke-width:1.33333" /><path
       id="path7"
       d="m 286.09641,316.40959 h -11.34934 v -55.21333 h 11.34934 z m 30.36666,3.53333 v -49.58533 l -22.912,-35.388 h -49.172 v 107.66533 h 49.12934 z m 6.59467,2.75334 -4.14,14.87733 -26.84,26.53333 H 233.49107 V 243.25226 l 4.14134,-14.876 h 59.50666 l 25.91867,40.028 z"
       style="fill:#f1511b;fill-opacity:1;fill-rule:nonzero;stroke:none;stroke-width:1.33333" /><path
       id="path8"
       d="m 399.12709,342.63492 v -26.22533 h -41.716 v -19.32533 h 16.104 v -18.71067 h -16.104 v -17.17733 h 41.716 v -26.22667 h -71.92933 v 107.66533 z m 6.59467,6.59467 -4.14,14.87733 h -85.272 V 243.25226 l 4.14,-14.876 h 85.272 v 39.41466 l -4.14,14.87734 h -21.472 v 21.01066 l -4.14,6.13467 h 29.752 z"
       style="fill:#f1511b;fill-opacity:1;fill-rule:nonzero;stroke:none;stroke-width:1.33333" /></g></svg>
