<?xml version="1.0" encoding="UTF-8" standalone="no"?>
<svg width="177.04239mm" height="35.912254mm" viewBox="0 0 177.04239 35.912254" version="1.1" id="svg1" xml:space="preserve" xmlns="http://www.w3.org/2000/svg" xmlns:svg="http://www.w3.org/2000/svg">
	<defs id="defs1" />
	<g id="layer-MC0" transform="matrix(0.26458333,0,0,0.26458334,-17.950609,-24.510824)">
		<path id="path1" d="m 0,0 v 19.669 h -31.287 v 14.494 h 12.078 V 48.196 H -31.287 V 61.079 H 0 v 19.67 H -53.947 V 0 Z M 4.946,-4.946 1.84,-16.104 h -63.954 v 90.641 l 3.106,11.157 H 4.946 V 56.133 L 1.84,44.975 H -14.263 V 29.217 l -3.106,-4.601 H 4.946 Z" style="fill:#bf1b2c;fill-opacity:1;fill-rule:nonzero;stroke:none" transform="matrix(1.3333333,0,0,-1.3333333,150.66347,206.89867)" />
		<path id="path2" d="m 0,0 v 19.669 h -36.895 l -17.167,-26.23 v -20.24 h 34.163 v -16.104 h -34.163 v -18.174 h 42.371 L 0,-47.986 v 35.103 H -31.862 V 0 Z m 4.946,-4.946 -1.15,-2.991 h 1.15 v -41.984 l -3.22,-11.158 -14.379,-16.104 h -49.576 v 28.162 l 3.106,6.116 h -3.106 v 32.957 l 22.658,34.563 H 4.946 Z" style="fill:#00a650;fill-opacity:1;fill-rule:nonzero;stroke:none" transform="matrix(1.3333333,0,0,-1.3333333,233.63413,125.45987)" />
		<path id="path3" d="m 0,0 v 19.669 h -31.287 v 14.494 h 12.078 V 48.196 H -31.287 V 61.079 H 0 v 19.67 H -53.947 V 0 Z M 4.946,-4.946 1.84,-16.104 h -63.954 v 90.641 l 3.106,11.157 H 4.946 V 56.133 L 1.84,44.975 H -14.263 V 29.217 l -3.106,-4.601 H 4.946 Z" style="fill:#00a650;fill-opacity:1;fill-rule:nonzero;stroke:none" transform="matrix(1.3333333,0,0,-1.3333333,316.2988,206.89867)" />
		<path id="path4" d="m 0,0 v 19.669 h -31.287 v 14.494 h 12.078 V 48.196 H -31.287 V 61.079 H 0 v 19.67 H -53.947 V 0 Z M 4.946,-4.946 1.84,-16.104 h -63.954 v 90.641 l 3.106,11.157 H 4.946 V 56.133 L 1.84,44.975 H -14.263 V 29.217 l -3.106,-4.601 H 4.946 Z" style="fill:#00a650;fill-opacity:1;fill-rule:nonzero;stroke:none" transform="matrix(1.3333333,0,0,-1.3333333,399.11653,206.89867)" />
		<path id="path5" d="m 0,0 h -36.895 l -17.168,-26.23 v -54.519 h 36.847 L 0,-63.73 v 13.923 h -22.89 v -13.458 h -8.512 v 43.596 h 8.512 V -44.285 H 0 Z m 4.946,-65.795 -3.105,-11.158 -20.13,-19.899 h -43.94 v 67.175 L -39.57,4.946 H 4.946 Z" style="fill:#f1511b;fill-opacity:1;fill-rule:nonzero;stroke:none" transform="matrix(1.3333333,0,0,-1.3333333,482.0872,99.234)" />
		<path id="path6" d="m 400.903,79.087 h -8.512 v 41.41 h 8.512 z m 22.776,-2.65 v 63.73 h -36.776 l -17.287,-17.209 v -63.54 h 36.847 z m 4.946,-2.065 -3.105,-11.158 -20.13,-19.9 h -43.94 v 78.448 l 23.235,23.35 h 43.94 z" style="fill:#f1511b;fill-opacity:1;fill-rule:nonzero;stroke:none" transform="matrix(1.3333333,0,0,-1.3333333,0,286.12267)" />
		<path id="path7" d="m 463.017,79.087 h -8.512 v 41.41 h 8.512 z m 22.775,-2.65 v 37.189 l -17.184,26.541 H 431.729 V 59.418 h 36.847 z m 4.946,-2.065 -3.105,-11.158 -20.13,-19.9 h -43.94 v 90.641 l 3.106,11.157 h 44.63 l 19.439,-30.021 z" style="fill:#f1511b;fill-opacity:1;fill-rule:nonzero;stroke:none" transform="matrix(1.3333333,0,0,-1.3333333,0,286.12267)" />
		<path id="path8" d="m 0,0 v 19.669 h -31.287 v 14.494 h 12.078 V 48.196 H -31.287 V 61.079 H 0 v 19.67 H -53.947 V 0 Z M 4.946,-4.946 1.841,-16.104 h -63.954 v 90.641 l 3.105,11.157 H 4.946 V 56.133 L 1.841,44.975 H -14.263 V 29.217 l -3.105,-4.601 H 4.946 Z" style="fill:#f1511b;fill-opacity:1;fill-rule:nonzero;stroke:none" transform="matrix(1.3333333,0,0,-1.3333333,730.38667,206.89867)" />
	</g>
</svg>
